<?xml version="1.0" standalone="no"?>
<!DOCTYPE svg PUBLIC "-//W3C//DTD SVG 20010904//EN"
 "http://www.w3.org/TR/2001/REC-SVG-20010904/DTD/svg10.dtd">
<svg version="1.0" xmlns="http://www.w3.org/2000/svg"
 width="512.000000pt" height="512.000000pt" viewBox="0 0 512.000000 512.000000"
 preserveAspectRatio="xMidYMid meet">

<g transform="translate(0.000000,512.000000) scale(0.100000,-0.100000)"
fill="#000000" stroke="none">
<path d="M460 4720 l0 -400 438 0 c327 0 441 -3 450 -12 9 -9 12 -331 12
-1389 l0 -1378 -51 -58 c-156 -178 -239 -445 -211 -678 53 -428 369 -744 797
-797 120 -14 246 0 378 42 379 122 638 502 614 900 -25 392 -291 718 -672 821
-63 17 -110 22 -217 23 l-138 1 0 678 0 677 150 0 150 0 0 549 c0 307 -5 593
-10 650 -42 410 -351 719 -761 761 -56 5 -287 10 -515 10 l-414 0 0 -400z
m1612 -3431 c208 -44 347 -249 309 -455 -16 -86 -51 -155 -111 -214 -155 -156
-405 -156 -560 0 -219 218 -115 592 185 666 65 16 111 17 177 3z"/>
<path d="M1955 991 c-64 -27 -81 -110 -32 -158 60 -61 162 -19 162 67 0 66
-72 116 -130 91z"/>
<path d="M3130 850 l0 -400 765 0 765 0 0 400 0 400 -765 0 -765 0 0 -400z"/>
</g>
</svg>
